<svg width="1088" height="386" viewBox="0 0 1088 386" fill="none" xmlns="http://www.w3.org/2000/svg">
<path d="M57.5 160.24C57.5 135.151 73.1113 112.71 96.6353 103.985L161.305 79.9997C162.611 79.5152 164 80.4816 164 81.8749V89L97.5401 114.46C77.0373 122.314 63.5 141.997 63.5 163.952V210L57.5 201.5V160.24Z" fill="#247DE5"/>
<path d="M166 181.5L220 161.5V192.5V192.5C209.137 208.648 188.653 215.296 170.378 208.603L166 207V181.5Z" fill="#247DE5"/>
<path d="M232.5 159H240.038C240.343 159 240.645 159.06 240.927 159.178V159.178C248.551 162.355 255.392 167.153 260.976 173.239L302.5 218.5V228V228C282.051 219.755 263.514 207.397 248.038 191.693L239.2 182.725C238.17 181.68 236.614 181.354 235.252 181.899L232.5 183V159Z" fill="#247DE5"/>
<path d="M166 97L224 74.5V74.5C229.128 78.3969 236.5 74.74 236.5 68.2997V42.6023C236.5 40.9357 238.419 40.0002 239.732 41.0267L263.616 59.6997C263.858 59.8892 264 60.1798 264 60.4875V90.6774C264 91.5553 263.884 92.4294 263.656 93.2771L262.399 97.9484C261.198 102.409 258.048 106.09 253.827 107.966V107.966C252.417 108.592 250.769 108.312 249.646 107.255L226 85L174.5 104.5L166 97Z" fill="#247DE5"/>
<path d="M12 142.935C12 110.48 32.0967 81.4164 62.4615 69.9579L214.529 12.5741C219.107 10.8464 224 14.2297 224 19.1233V74.114C224 74.9477 223.483 75.6939 222.702 75.9867L166.702 96.9867C165.395 97.477 164 96.5104 164 95.114V81.8749C164 80.4816 162.611 79.5152 161.305 79.9997L96.6354 103.985C73.1114 112.71 57.5 135.151 57.5 160.24V197L45.6698 203.338C35.3287 208.877 23.1918 210.017 12 206.5V206.5V142.935Z" fill="#247DE5"/>
<path fill-rule="evenodd" clip-rule="evenodd" d="M301.495 244.998L298.91 243.944C275.61 234.439 254.78 219.754 238 201L226.835 210.304C206.298 227.418 177.553 230.686 153.699 218.618L150.5 217L138.062 230.247C113.308 256.611 70.2838 252.32 51.2244 221.587L49 218L32.2296 223.59C25.0917 225.969 17.8503 224.939 12 221.575V269.884C12 282.121 15.5804 293.279 21.6368 302.568L21.8949 302.697L21.9444 303.035C36.3027 324.612 64.102 335.888 91.2125 326.724L174.67 298.513C206.346 287.805 231.115 262.783 241.5 231C241.5 267.709 217.962 300.281 183.108 311.803L95.3787 340.805C73.6833 347.977 51.6841 344.43 34.2401 333.677C58.7766 363.694 100.237 378.612 141.2 365.665L233.801 336.397C273.786 323.759 301.068 286.855 301.495 244.998Z" fill="#247DE5"/>
<path d="M283 128L289.025 137.275L298 143.5L289.025 149.725L283 159L276.975 149.725L268 143.5L276.975 137.275L283 128Z" fill="#247DE5"/>
<path d="M503.8 236.4C503.267 237.2 502.533 238.2 501.6 239.4C500.667 240.467 499.667 241.533 498.6 242.6C497.667 243.667 496.667 244.733 495.6 245.8C494.667 246.733 493.867 247.467 493.2 248C485.867 254.267 477.8 259 469 262.2C460.2 265.4 451.2 267 442 267C431.867 267 421.8 264.867 411.8 260.6C401.8 256.333 393.067 250.333 385.6 242.6C379.2 235.533 374.333 227.733 371 219.2C367.667 210.533 366 201.8 366 193C366 182.867 368.133 173.067 372.4 163.6C376.667 154 382.867 145.6 391 138.4C398.2 132.133 406.133 127.4 414.8 124.2C423.6 121 432.467 119.4 441.4 119.4C451.933 119.4 462.133 121.467 472 125.6C482 129.733 490.8 136 498.4 144.4L466.8 172C463.333 168.267 459.4 165.533 455 163.8C450.6 161.933 446.133 161 441.6 161C433.6 161 426.267 163.733 419.6 169.2C416.133 172.267 413.467 175.933 411.6 180.2C409.733 184.467 408.8 188.733 408.8 193C408.8 196.867 409.467 200.733 410.8 204.6C412.267 208.333 414.467 211.733 417.4 214.8C420.733 218.533 424.533 221.333 428.8 223.2C433.067 224.933 437.467 225.8 442 225.8C445.867 225.8 449.733 225.133 453.6 223.8C457.467 222.467 460.933 220.4 464 217.6C464.933 216.933 465.867 216.067 466.8 215C467.733 213.8 468.4 212.867 468.8 212.2L503.8 236.4Z" fill="#247DE5"/>
<path d="M572.059 118C582.459 118 592.193 120 601.259 124C610.459 127.867 618.459 133.2 625.259 140C632.059 146.8 637.393 154.8 641.259 164C645.259 173.067 647.259 182.8 647.259 193.2C647.259 203.6 645.259 213.4 641.259 222.6C637.393 231.667 632.059 239.6 625.259 246.4C618.459 253.2 610.459 258.6 601.259 262.6C592.193 266.467 582.459 268.4 572.059 268.4C561.659 268.4 551.859 266.467 542.659 262.6C533.593 258.6 525.659 253.2 518.859 246.4C512.059 239.6 506.659 231.667 502.659 222.6C498.793 213.4 496.859 203.6 496.859 193.2C496.859 182.8 498.793 173.067 502.659 164C506.659 154.8 512.059 146.8 518.859 140C525.659 133.2 533.593 127.867 542.659 124C551.859 120 561.659 118 572.059 118ZM604.259 193C604.259 188.6 603.393 184.467 601.659 180.6C600.059 176.733 597.859 173.4 595.059 170.6C592.259 167.8 588.926 165.6 585.059 164C581.193 162.267 577.059 161.4 572.659 161.4C568.259 161.4 564.126 162.267 560.259 164C556.393 165.6 552.993 167.8 550.059 170.6C547.259 173.4 544.993 176.733 543.259 180.6C541.659 184.467 540.859 188.6 540.859 193C540.859 197.4 541.659 201.533 543.259 205.4C544.993 209.267 547.259 212.667 550.059 215.6C552.993 218.4 556.393 220.667 560.259 222.4C564.126 224 568.259 224.8 572.659 224.8C577.059 224.8 581.193 224 585.059 222.4C588.926 220.667 592.259 218.4 595.059 215.6C597.859 212.667 600.059 209.267 601.659 205.4C603.393 201.533 604.259 197.4 604.259 193Z" fill="#247DE5"/>
<path d="M696.258 120.8C706.258 120.8 715.658 122.733 724.458 126.6C733.258 130.333 740.924 135.533 747.458 142.2C753.991 148.733 759.124 156.4 762.858 165.2C766.724 173.867 768.658 183.2 768.658 193.2C768.658 203.2 766.724 212.6 762.858 221.4C759.124 230.2 753.991 237.933 747.458 244.6C740.924 251.133 733.258 256.333 724.458 260.2C715.658 263.933 706.258 265.8 696.258 265.8H654.258V120.8H696.258ZM696.258 223.4C700.524 223.4 704.524 222.667 708.258 221.2C712.124 219.6 715.458 217.467 718.258 214.8C721.058 212 723.258 208.733 724.858 205C726.458 201.267 727.258 197.267 727.258 193C727.258 188.733 726.458 184.733 724.858 181C723.258 177.267 721.058 174.067 718.258 171.4C715.458 168.6 712.124 166.4 708.258 164.8C704.524 163.2 700.524 162.4 696.258 162.4V223.4Z" fill="#247DE5"/>
<path d="M769.102 120.8H831.902V158H821.502V228.6H831.902V265.8H769.102V228.6H779.502V158H769.102V120.8Z" fill="#247DE5"/>
<path d="M924.548 120.8H970.548L931.748 264.4H880.548L841.748 120.8H887.748L906.148 192.6L924.548 120.8Z" fill="#247DE5"/>
<path d="M1075.61 223.8V265.8H975.008V120.8H1075.61V162.8H1017.01V175.8H1066.01V211H1017.01V223.8H1075.61Z" fill="#247DE5"/>
</svg>