<svg width="291" height="362" viewBox="0 0 291 362" fill="none" xmlns="http://www.w3.org/2000/svg">
<path d="M45.5 151.24C45.5 126.151 61.1113 103.71 84.6353 94.985L149.305 70.9997C150.611 70.5152 152 71.4816 152 72.8749V80L85.5401 105.46C65.0373 113.314 51.5 132.997 51.5 154.952V201L45.5 192.5V151.24Z" fill="#247DE5"/>
<path d="M154 172.5L208 152.5V183.5V183.5C197.137 199.648 176.653 206.296 158.378 199.603L154 198V172.5Z" fill="#247DE5"/>
<path d="M220.5 150H228.038C228.343 150 228.645 150.06 228.927 150.178V150.178C236.551 153.355 243.392 158.153 248.976 164.239L290.5 209.5V219V219C270.051 210.755 251.514 198.397 236.038 182.693L227.2 173.725C226.17 172.68 224.614 172.354 223.252 172.899L220.5 174V150Z" fill="#247DE5"/>
<path d="M154 88L212 65.5V65.5C217.128 69.3969 224.5 65.74 224.5 59.2997V33.6023C224.5 31.9357 226.419 31.0002 227.732 32.0267L251.616 50.6997C251.858 50.8892 252 51.1798 252 51.4875V81.6774C252 82.5553 251.884 83.4294 251.656 84.2771L250.399 88.9484C249.198 93.4091 246.048 97.0898 241.827 98.9659V98.9659C240.417 99.5924 238.769 99.3122 237.646 98.255L214 76L162.5 95.5L154 88Z" fill="#247DE5"/>
<path d="M0 133.935C0 101.48 20.0967 72.4164 50.4615 60.9579L202.529 3.57411C207.107 1.84639 212 5.22974 212 10.1233V65.114C212 65.9477 211.483 66.6939 210.702 66.9867L154.702 87.9867C153.395 88.477 152 87.5104 152 86.114V72.8749C152 71.4816 150.611 70.5152 149.305 70.9997L84.6354 94.985C61.1114 103.71 45.5 126.151 45.5 151.24V188L33.6698 194.338C23.3287 199.877 11.1918 201.017 0 197.5V197.5V133.935Z" fill="#247DE5"/>
<path fill-rule="evenodd" clip-rule="evenodd" d="M289.495 235.998L286.91 234.944C263.61 225.439 242.78 210.754 226 192L214.835 201.304C194.298 218.418 165.553 221.686 141.699 209.618L138.5 208L126.062 221.247C101.308 247.611 58.2838 243.32 39.2244 212.587L37 209L20.2296 214.59C13.0917 216.969 5.85034 215.939 0 212.575V260.884C0 273.121 3.58043 284.279 9.63675 293.568L9.89492 293.697L9.94437 294.035C24.3027 315.612 52.102 326.888 79.2125 317.724L162.67 289.513C194.346 278.805 219.115 253.783 229.5 222C229.5 258.709 205.962 291.281 171.108 302.803L83.3787 331.805C61.6833 338.977 39.6841 335.43 22.2401 324.677C46.7766 354.694 88.2372 369.612 129.2 356.665L221.801 327.397C261.786 314.759 289.068 277.855 289.495 235.998Z" fill="#247DE5"/>
<path d="M271 119L277.025 128.275L286 134.5L277.025 140.725L271 150L264.975 140.725L256 134.5L264.975 128.275L271 119Z" fill="#247DE5"/>
</svg>